HIERARCHY
ROOT Hips
{
	OFFSET 0.000000 0.000000 0.000000 
	CHANNELS 6 Xposition Yposition Zposition Zrotation Yrotation Xrotation
	JOINT LeftUpLeg
	{
		OFFSET 1.363060 -1.794630 0.839290 
		CHANNELS 3 Zrotation Yrotation Xrotation
		JOINT LeftLeg
		{
			OFFSET 2.448110 -6.726130 0.000000 
			CHANNELS 3 Zrotation Yrotation Xrotation
			JOINT LeftFoot
			{
				OFFSET 2.562200 -7.039590 0.000000 
				CHANNELS 3 Zrotation Yrotation Xrotation
				JOINT LeftToeBase
				{
					OFFSET 0.157640 -0.433110 2.322550 
					CHANNELS 3 Zrotation Yrotation Xrotation
					End Site
					{
						OFFSET 0.000000 0.000000 0.000000 
					}
				}
			}
		}
	}
	JOINT RightUpLeg
	{
		OFFSET -1.305520 -1.794630 0.839290 
		CHANNELS 3 Zrotation Yrotation Xrotation
		JOINT RightLeg
		{
			OFFSET -2.542530 -6.985550 0.000000 
			CHANNELS 3 Zrotation Yrotation Xrotation
			JOINT RightFoot
			{
				OFFSET -2.568260 -7.056230 0.000000 
				CHANNELS 3 Zrotation Yrotation Xrotation
				JOINT RightToeBase
				{
					OFFSET -0.164730 -0.452590 2.363150 
					CHANNELS 3 Zrotation Yrotation Xrotation
					End Site
					{
						OFFSET 0.000000 0.000000 0.000000 
					}
				}
			}
		}
	}
	JOINT Spine
	{
		OFFSET 0.028270 2.035590 -0.193380 
		CHANNELS 3 Zrotation Yrotation Xrotation
		JOINT Spine1
		{
			OFFSET 0.056720 2.048850 -0.042750 
			CHANNELS 3 Zrotation Yrotation Xrotation
			JOINT Neck1
			{
				OFFSET -0.054170 1.746240 0.172020 
				CHANNELS 3 Zrotation Yrotation Xrotation
				JOINT Head
				{
					OFFSET 0.104070 1.761360 -0.123970 
					CHANNELS 3 Zrotation Yrotation Xrotation
					End Site
					{
						OFFSET 0.000000 0.000000 0.000000 
					}
				}
			}
			JOINT LeftArm
			{
				OFFSET 3.362410 1.200890 -0.311210 
				CHANNELS 3 Zrotation Yrotation Xrotation
				JOINT LeftForeArm
				{
					OFFSET 4.983000 -0.000000 -0.000000 
					CHANNELS 3 Zrotation Yrotation Xrotation
					JOINT LeftHand
					{
						OFFSET 3.483560 -0.000000 -0.000000 
						CHANNELS 3 Zrotation Yrotation Xrotation
						JOINT LeftHandIndex1
						{
							OFFSET 0.715260 -0.000000 -0.000000 
							CHANNELS 3 Zrotation Yrotation Xrotation
							End Site
							{
								OFFSET 0.000000 0.000000 0.000000 
							}
						}
					}
				}
			}
			JOINT RightArm
			{
				OFFSET -3.136600 1.374050 -0.404650 
				CHANNELS 3 Zrotation Yrotation Xrotation
				JOINT RightForeArm
				{
					OFFSET -5.241900 -0.000000 -0.000000 
					CHANNELS 3 Zrotation Yrotation Xrotation
					JOINT RightHand
					{
						OFFSET -3.444170 -0.000000 -0.000000 
						CHANNELS 3 Zrotation Yrotation Xrotation
						JOINT RightHandIndex1
						{
							OFFSET -0.622530 -0.000000 -0.000000 
							CHANNELS 3 Zrotation Yrotation Xrotation
							End Site
							{
								OFFSET 0.000000 0.000000 0.000000 
							}
						}
					}
				}
			}
		}
	}
}
MOTION
Frames: 17
Frame Time: 0.041667
1.537090 18.140517 1.696565 0.403544 -35.356947 5.129886 -11.500289 -5.594897 -7.573818 0.057309 6.028415 20.910096 -3.936280 16.575119 -16.079806 0.215300 -2.987000 -8.242500 16.996417 26.914749 -8.584638 -2.180866 -7.154174 26.568537 2.318063 -9.286909 -6.945381 -0.009600 0.633700 -1.741300 -1.537348 -0.110367 11.017936 2.942712 0.424171 -6.521875 -0.482470 -0.968640 12.664721 1.711000 -0.662700 4.817000 -77.404526 1.798772 34.296619 14.972364 -22.741845 -3.365876 -0.818832 -1.284434 7.598655 -7.125000 0.000000 0.000000 74.011507 -4.668306 29.019470 -10.269164 11.520239 -1.296241 1.221813 0.481837 11.776194 7.125000 0.000000 0.000000 
1.515308 18.136238 1.699191 0.707721 -35.184689 4.732720 -11.628229 -5.489832 -7.414364 0.088574 6.066104 21.045949 -3.859703 16.290408 -15.835698 0.208900 -2.942400 -8.118400 16.926624 26.587862 -8.514064 -2.221662 -7.235664 26.807197 2.289590 -9.225922 -7.049510 -0.014300 0.772400 -2.122800 -1.951745 -0.081711 11.082530 3.035377 0.431831 -6.474614 -0.158998 -1.029196 12.335750 1.795000 -0.670900 4.708900 -77.400160 1.664337 34.697965 15.131836 -22.958847 -3.439787 -0.811584 -1.292456 7.421849 -7.125000 0.000000 0.000000 74.127348 -4.676041 28.977080 -10.185737 11.367777 -1.272012 1.216191 0.423418 11.797070 7.125000 0.000000 0.000000 
1.490900 18.131473 1.704442 0.925549 -35.148551 4.364010 -11.710816 -5.370495 -7.238402 0.125036 6.114492 21.204712 -3.832936 16.160724 -15.612685 0.227000 -3.067000 -8.465400 16.933502 26.314132 -8.359245 -2.253173 -7.298317 26.998457 2.225346 -9.045430 -7.097927 -0.014100 0.767900 -2.110500 -2.202055 0.027427 11.156742 3.111930 0.482542 -6.426467 -0.087440 -1.086589 12.148243 1.807900 -0.692800 4.652700 -77.439053 1.545808 35.053857 15.287758 -23.169495 -3.513195 -0.793117 -1.309470 7.572034 -7.125000 0.000000 0.000000 74.143962 -4.794053 29.509554 -10.187797 11.384911 -1.280838 1.209962 0.419883 10.861557 7.125000 0.000000 0.000000 
1.467465 18.128750 1.709304 0.958706 -35.044689 4.067170 -11.628306 -5.261156 -7.081095 0.165447 6.178950 21.383650 -3.792051 15.961566 -15.314441 0.244600 -3.182300 -8.786800 17.144168 26.120036 -8.083325 -2.286993 -7.351167 27.186157 2.213215 -9.033372 -7.227138 -0.013000 0.735400 -2.021000 -2.268045 0.088142 11.166499 3.106874 0.508156 -6.413379 -0.070886 -1.111540 11.951905 1.813500 -0.703300 4.578500 -77.497352 1.464250 35.183128 15.439495 -23.374279 -3.586455 -0.746060 -1.344313 8.240636 -7.125000 0.000000 0.000000 74.092839 -4.879758 30.376261 -10.124545 11.295235 -1.267419 1.253260 0.401400 9.627237 7.125000 0.000000 0.000000 
1.449281 18.127875 1.711832 0.944177 -34.753216 3.732785 -11.483354 -5.131874 -6.928258 0.213287 6.253136 21.575574 -3.768910 15.762604 -14.818304 0.284500 -3.430500 -9.479800 17.427678 25.849771 -7.741058 -2.319294 -7.397603 27.360730 2.245580 -9.169480 -7.444137 -0.013100 0.739600 -2.032500 -2.370802 0.042192 11.206986 3.031791 0.474940 -6.461872 -0.024121 -1.118650 11.708968 1.826900 -0.702400 4.488300 -77.496449 1.411020 36.043948 15.553696 -23.540784 -3.644654 -0.758109 -1.343196 6.733462 -7.125000 0.000000 0.000000 74.017352 -4.885202 31.282222 -10.068268 11.216949 -1.258651 1.242657 0.420847 8.802491 7.125000 0.000000 0.000000 
1.425846 18.127486 1.715235 1.075725 -34.491751 3.299469 -11.455442 -4.851696 -6.778753 0.271923 6.329892 21.803441 -3.727051 15.501513 -14.258383 0.330200 -3.692900 -10.214200 17.575423 25.576834 -7.380066 -2.347689 -7.445373 27.524868 2.246590 -9.211254 -7.664891 -0.012000 0.707300 -1.943900 -2.615393 -0.015704 11.347454 3.042893 0.436423 -6.408101 0.145206 -1.133588 11.401297 1.869700 -0.698700 4.383700 -77.462479 1.245038 36.550279 15.643575 -23.663098 -3.689782 -0.758273 -1.340418 6.172838 -7.125000 0.000000 0.000000 73.943836 -4.769919 32.144981 -10.004840 11.121405 -1.251563 1.179720 0.438693 8.352679 7.125000 0.000000 0.000000 
1.396285 18.124764 1.720000 1.209433 -34.326869 2.858196 -11.450425 -4.521003 -6.600296 0.332851 6.404605 22.036526 -3.694685 15.286544 -13.738625 0.378800 -3.952700 -10.943500 17.717116 25.277909 -7.024095 -2.376445 -7.495550 27.693248 2.216971 -9.145861 -7.786058 -0.011200 0.684000 -1.879800 -2.816571 -0.020752 11.503659 3.098990 0.427066 -6.280972 0.146222 -1.183146 11.143930 1.862900 -0.721800 4.290600 -77.491221 1.074394 36.817147 15.726801 -23.764253 -3.730021 -0.745808 -1.341606 6.069887 -7.125000 0.000000 0.000000 73.827516 -4.579767 32.728378 -9.893654 10.950128 -1.240848 1.045284 0.355893 8.203192 7.125000 0.000000 0.000000 
1.364973 18.119415 1.727488 1.298040 -34.141088 2.449083 -11.413878 -4.231738 -6.391761 0.391950 6.476740 22.262363 -3.653848 15.053701 -13.238611 0.431300 -4.214700 -11.681400 17.894996 24.966030 -6.660234 -2.406211 -7.546077 27.870988 2.158294 -8.997321 -7.939459 -0.010200 0.653100 -1.794600 -3.017435 0.003926 11.712806 3.117713 0.428534 -6.085451 0.148963 -1.257120 11.052521 1.852100 -0.760200 4.252700 -77.468559 0.820257 37.286452 15.798972 -23.850481 -3.766171 -0.726607 -1.358410 5.682405 -7.125000 0.000000 0.000000 73.696516 -4.359310 33.309310 -9.840578 10.875011 -1.249841 0.878745 0.300964 8.166685 7.125000 0.000000 0.000000 
1.331814 18.113289 1.734295 1.525744 -33.945011 1.953924 -11.488154 -4.061032 -6.143376 0.457227 6.561259 22.542716 -3.625640 14.901147 -12.876202 0.488000 -4.479500 -12.429600 17.959882 24.725401 -6.250747 -2.432051 -7.595499 28.027352 2.129648 -8.946248 -8.127712 -0.007700 0.565900 -1.555100 -3.261129 0.012053 11.812907 3.232671 0.429983 -5.954131 0.239002 -1.275868 11.094823 1.869600 -0.768700 4.247800 -77.440030 0.553490 37.742801 15.768389 -23.795822 -3.751723 -0.728700 -1.363891 5.594133 -7.125000 0.000000 0.000000 73.514455 -4.163968 34.129702 -9.823127 10.873896 -1.268081 0.744388 0.286753 8.233554 7.125000 0.000000 0.000000 
1.297682 18.108622 1.741393 1.690581 -33.760773 1.526206 -11.498055 -3.917386 -5.992824 0.534639 6.674611 22.892572 -3.623276 14.828053 -12.511409 0.570200 -4.836000 -13.441500 18.066027 24.516581 -5.832487 -2.449559 -7.630829 28.141558 2.103486 -8.906048 -8.336728 -0.005100 0.461200 -1.267400 -3.323014 0.003732 11.728419 3.356730 0.432505 -5.875730 0.203123 -1.243666 11.266622 1.865500 -0.761800 4.261500 -77.463641 0.474344 38.287132 15.713064 -23.709424 -3.725532 -0.746256 -1.357254 5.718228 -7.125000 0.000000 0.000000 73.255579 -4.000597 34.624371 -9.768615 10.814994 -1.271338 0.624251 0.247061 8.771719 7.125000 0.000000 0.000000 
1.264328 18.104440 1.746936 1.541891 -33.746533 1.303035 -11.259510 -3.570552 -5.981971 0.625063 6.820762 23.299574 -3.594704 14.658214 -12.081126 0.655300 -5.178000 -14.416800 18.463358 24.369136 -5.404798 -2.467097 -7.646903 28.235713 2.081192 -8.856183 -8.428187 -0.003700 0.394200 -1.083200 -3.161082 0.046887 11.476600 3.302449 0.456932 -5.819292 0.210818 -1.216479 11.374723 1.879600 -0.757800 4.227400 -77.513445 0.496692 38.712644 15.677194 -23.650526 -3.710554 -0.741304 -1.358545 5.798792 -7.125000 0.000000 0.000000 72.959963 -3.921433 34.842090 -9.728959 10.773822 -1.276052 0.468982 0.243139 9.484185 7.125000 0.000000 0.000000 
1.229419 18.098703 1.750242 1.081313 -33.895490 1.247822 -10.772697 -3.175635 -6.005831 0.719610 6.985670 23.731321 -3.551488 14.458237 -11.735249 0.710200 -5.386100 -15.013000 19.162189 24.303203 -4.951509 -2.489596 -7.650897 28.339807 2.041853 -8.746969 -8.489413 -0.002800 0.343200 -0.943000 -2.796347 0.146136 11.261041 3.089815 0.502548 -5.725518 0.353273 -1.189797 11.298869 1.930100 -0.746000 4.136200 -77.507469 0.387414 39.091993 15.627425 -23.572062 -3.690568 -0.719854 -1.365051 5.602937 -7.125000 0.000000 0.000000 72.618464 -3.795984 35.262783 -9.733027 10.804401 -1.298009 0.319436 0.220310 9.960528 7.125000 0.000000 0.000000 
1.197427 18.090632 1.751506 0.843972 -33.878097 1.018040 -10.435856 -2.938344 -5.946087 0.813439 7.143568 24.168853 -3.479332 14.178237 -11.398494 0.739100 -5.492100 -15.317500 19.643964 24.079771 -4.546043 -2.513558 -7.670508 28.461236 1.996152 -8.618164 -8.531050 -0.002200 0.305700 -0.840000 -2.677792 0.206011 11.097325 2.972550 0.529820 -5.691080 0.433354 -1.206067 11.543737 1.948100 -0.759700 4.151800 -77.431251 0.169964 39.587553 15.548527 -23.458794 -3.657471 -0.701217 -1.374398 5.279090 -7.125000 0.000000 0.000000 72.288496 -3.586336 35.468920 -9.743060 10.849258 -1.326541 0.153616 0.146559 10.592406 7.125000 0.000000 0.000000 
1.165726 18.080908 1.755590 1.024434 -33.719513 0.510937 -10.416734 -2.705372 -5.762729 0.903491 7.272888 24.583737 -3.351894 13.739612 -11.067730 0.741800 -5.501900 -15.345800 19.731623 23.672779 -4.201572 -2.543067 -7.722755 28.628422 1.947602 -8.479045 -8.538023 -0.004600 0.437400 -1.201800 -2.934607 0.227994 10.989815 3.024975 0.539521 -5.634863 0.366230 -1.219066 11.966995 1.916200 -0.779000 4.228600 -77.322241 -0.074841 40.222836 15.464552 -23.339256 -3.621744 -0.691469 -1.384526 5.040979 -7.125000 0.000000 0.000000 71.913851 -3.265524 35.933494 -9.754860 10.905201 -1.354335 -0.013363 0.127521 10.879924 7.125000 0.000000 0.000000 
1.129261 18.070406 1.767065 1.202624 -33.580583 0.028486 -10.426159 -2.555079 -5.510598 0.986534 7.386468 24.959948 -3.255909 13.404834 -10.776320 0.746700 -5.519500 -15.396400 19.792113 23.261274 -3.895714 -2.587717 -7.800826 28.875598 1.876012 -8.281776 -8.595816 -0.008500 0.594300 -1.633200 -2.973818 0.197647 10.829862 3.093463 0.526821 -5.474076 0.212867 -1.149955 12.267922 1.879900 -0.764400 4.258900 -77.363104 -0.261042 40.592107 15.339551 -23.147018 -3.565837 -0.666846 -1.386868 5.228236 -7.125000 0.000000 0.000000 71.365618 -2.914805 36.448388 -9.792524 11.020071 -1.399314 -0.129401 -0.020984 11.197922 7.125000 0.000000 0.000000 
1.092892 18.060973 1.775330 1.327388 -33.478545 -0.295245 -10.387860 -2.452261 -5.390542 1.062851 7.495133 25.302062 -3.211151 13.220973 -10.462001 0.769300 -5.600700 -15.630000 19.879189 23.034525 -3.702301 -2.646284 -7.894112 29.186994 1.783626 -8.034750 -8.732454 -0.006700 0.530300 -1.457100 -3.031139 0.183581 10.605786 3.140484 0.520642 -5.256322 0.118780 -1.102328 12.545503 1.853900 -0.756200 4.287100 -77.335663 -0.541912 40.857811 15.230016 -22.970880 -3.518961 -0.603803 -1.404116 5.417312 -7.125000 0.000000 0.000000 70.832047 -2.454481 36.489619 -9.849600 11.149156 -1.452012 -0.166869 -0.347772 12.071972 7.125000 0.000000 0.000000 
1.058177 18.052708 1.776108 1.593585 -33.475540 -0.677046 -10.451300 -2.160827 -5.361242 1.151563 7.609943 25.678784 -3.181479 13.072024 -10.049348 0.822700 -5.787400 -16.168700 19.849190 22.872099 -3.557943 -2.706907 -7.995053 29.508471 1.686133 -7.766755 -8.836221 -0.003600 0.389300 -1.069700 -3.235048 0.278665 10.314426 3.236967 0.570789 -5.065572 0.122467 -1.127645 12.833946 1.849400 -0.780100 4.314500 -77.233760 -0.843644 41.337467 15.125741 -22.806652 -3.475920 -0.557395 -1.403302 5.589076 -7.125000 0.000000 0.000000 70.263319 -2.037414 36.714309 -9.940095 11.332390 -1.498589 -0.236292 -0.393397 12.075182 7.125000 0.000000 0.000000 
